<?xml version="1.0" encoding="UTF-8" standalone="no"?>
<!-- Created with Inkscape (http://www.inkscape.org/) -->

<svg
   xmlns:dc="http://purl.org/dc/elements/1.1/"
   xmlns:cc="http://creativecommons.org/ns#"
   xmlns:rdf="http://www.w3.org/1999/02/22-rdf-syntax-ns#"
   xmlns:svg="http://www.w3.org/2000/svg"
   xmlns="http://www.w3.org/2000/svg"
   xmlns:sodipodi="http://sodipodi.sourceforge.net/DTD/sodipodi-0.dtd"
   xmlns:inkscape="http://www.inkscape.org/namespaces/inkscape"
   version="1.1"
   width="439.08737"
   height="507.21564"
   id="svg2"
   xml:space="preserve"
   inkscape:version="0.48.5 r10040"
   sodipodi:docname="jupyter.svg"><sodipodi:namedview
     pagecolor="#ffffff"
     bordercolor="#666666"
     borderopacity="1"
     objecttolerance="10"
     gridtolerance="10"
     guidetolerance="10"
     inkscape:pageopacity="1"
     inkscape:pageshadow="2"
     inkscape:window-width="1364"
     inkscape:window-height="744"
     id="namedview60"
     showgrid="false"
     fit-margin-top="3"
     fit-margin-left="3"
     fit-margin-right="3"
     fit-margin-bottom="3"
     inkscape:zoom="0.61699346"
     inkscape:cx="297.34028"
     inkscape:cy="271.42837"
     inkscape:window-x="0"
     inkscape:window-y="22"
     inkscape:window-maximized="1"
     inkscape:current-layer="svg2" /><metadata
     id="metadata8"><rdf:RDF><cc:Work
         rdf:about=""><dc:format>image/svg+xml</dc:format><dc:type
           rdf:resource="http://purl.org/dc/dcmitype/StillImage" /><dc:title /></cc:Work></rdf:RDF></metadata><defs
     id="defs6"><clipPath
       id="clipPath16"><path
         d="M 0,612 792,612 792,0 0,0 0,612 z"
         id="path18"
         inkscape:connector-curvature="0" /></clipPath><clipPath
       id="clipPath56"><path
         d="m 396.012,200.599 c -65.513,0 -122.561,23.543 -152.26,58.326 l 0,0 c 22.475,-62.356 82.158,-106.939 152.26,-106.939 l 0,0 c 70.102,0 129.784,44.583 152.259,106.939 l 0,0 C 518.573,224.142 461.525,200.599 396.012,200.599"
         id="path58"
         inkscape:connector-curvature="0" /></clipPath><linearGradient
       x1="0"
       y1="0"
       x2="1"
       y2="0"
       id="linearGradient64"
       gradientUnits="userSpaceOnUse"
       gradientTransform="matrix(304.51871,0,0,-304.51871,243.7523,205.45578)"
       spreadMethod="pad"><stop
         id="stop66"
         style="stop-color:#f79139;stop-opacity:1"
         offset="0" /><stop
         id="stop68"
         style="stop-color:#f37c38;stop-opacity:1"
         offset="0.47658199" /><stop
         id="stop70"
         style="stop-color:#f37c38;stop-opacity:1"
         offset="0.47658199" /><stop
         id="stop72"
         style="stop-color:#d95636;stop-opacity:1"
         offset="0.98729998" /><stop
         id="stop74"
         style="stop-color:#d95636;stop-opacity:1"
         offset="1" /></linearGradient><clipPath
       id="clipPath82"><path
         d="m 243.752,368.661 c 29.699,34.783 86.747,58.327 152.26,58.327 l 0,0 c 65.512,0 122.561,-23.544 152.259,-58.327 l 0,0 c -22.475,62.356 -82.157,106.94 -152.259,106.94 l 0,0 c -70.102,0 -129.785,-44.584 -152.26,-106.94"
         id="path84"
         inkscape:connector-curvature="0" /></clipPath><linearGradient
       x1="0"
       y1="0"
       x2="1"
       y2="0"
       id="linearGradient90"
       gradientUnits="userSpaceOnUse"
       gradientTransform="matrix(304.51871,0,0,-304.51871,243.7523,422.13101)"
       spreadMethod="pad"><stop
         id="stop92"
         style="stop-color:#f79139;stop-opacity:1"
         offset="0" /><stop
         id="stop94"
         style="stop-color:#f37c38;stop-opacity:1"
         offset="0.47658199" /><stop
         id="stop96"
         style="stop-color:#f37c38;stop-opacity:1"
         offset="0.47658199" /><stop
         id="stop98"
         style="stop-color:#d95636;stop-opacity:1"
         offset="0.98729998" /><stop
         id="stop100"
         style="stop-color:#d95636;stop-opacity:1"
         offset="1" /></linearGradient><clipPath
       id="clipPath108"><path
         d="M 0,612 792,612 792,0 0,0 0,612 z"
         id="path110"
         inkscape:connector-curvature="0" /></clipPath></defs><g
     transform="matrix(1.25,0,0,-1.25,-275.45638,637.73647)"
     id="g10"><g
       id="g12"><g
         clip-path="url(#clipPath16)"
         id="g14"><g
           transform="translate(236.9291,294.9769)"
           id="g20"><path
             d="m 0,0 c 0,-12.737 -0.988,-16.909 -3.624,-19.983 -2.305,-2.525 -6.148,-3.733 -10.54,-4.063 l 0.988,-7.576 c 5.161,0 12.188,1.757 16.47,6.039 4.721,4.831 6.368,11.529 6.368,21.85 l 0,48.202 L 0,44.469 0,0 z"
             id="path22"
             style="fill:#4d4c4e;fill-opacity:1;fill-rule:nonzero;stroke:none"
             inkscape:connector-curvature="0" /></g><g
           transform="translate(309.0677,300.7964)"
           id="g24"><path
             d="m 0,0 c 0,-5.49 0.11,-10.321 0.439,-14.493 l -8.564,0 -0.549,8.674 -0.22,0 c -2.525,-4.282 -8.125,-9.882 -17.568,-9.882 -8.344,0 -18.336,4.612 -18.336,23.277 l 0,31.074 9.662,0 0,-29.426 c 0,-10.102 3.074,-16.91 11.859,-16.91 6.477,0 10.979,4.502 12.736,8.785 0.549,1.426 0.879,3.184 0.879,4.94 l 0,32.611 L 0,38.65 0,0 z"
             id="path26"
             style="fill:#4d4c4e;fill-opacity:1;fill-rule:nonzero;stroke:none"
             inkscape:connector-curvature="0" /></g><g
           transform="translate(336.8487,307.9335)"
           id="g28"><path
             d="m 0,0 c 0,-1.428 0.219,-2.745 0.439,-3.953 1.757,-6.697 7.576,-11.309 14.494,-11.309 10.211,0 16.14,8.345 16.14,20.533 0,10.65 -5.6,19.763 -15.811,19.763 C 8.674,25.034 2.525,20.313 0.659,13.067 0.329,11.859 0,10.431 0,9.114 L 0,0 z m -9.552,14.164 c 0,6.808 -0.22,12.298 -0.44,17.349 l 8.674,0 0.44,-9.114 0.219,0 c 3.953,6.478 10.211,10.321 18.886,10.321 12.846,0 22.508,-10.87 22.508,-27.01 0,-19.105 -11.638,-28.548 -24.155,-28.548 -7.028,0 -13.176,3.074 -16.361,8.345 l -0.219,0 0,-28.878 -9.552,0 0,57.535 z"
             id="path30"
             style="fill:#4d4c4e;fill-opacity:1;fill-rule:nonzero;stroke:none"
             inkscape:connector-curvature="0" /></g><g
           transform="translate(394.7144,339.4462)"
           id="g32"><path
             d="m 0,0 11.638,-31.403 c 1.209,-3.514 2.526,-7.686 3.405,-10.87 l 0.219,0 c 0.988,3.184 2.086,7.247 3.404,11.09 L 29.206,0 39.418,0 24.924,-37.881 C 18.007,-56.107 13.286,-65.441 6.698,-71.15 1.976,-75.322 -2.745,-76.97 -5.161,-77.409 l -2.415,8.125 c 2.415,0.769 5.6,2.307 8.454,4.722 2.636,2.086 5.93,5.819 8.126,10.76 0.439,0.988 0.768,1.757 0.768,2.306 0,0.549 -0.22,1.317 -0.659,2.525 L -10.541,0 0,0 z"
             id="path34"
             style="fill:#4d4c4e;fill-opacity:1;fill-rule:nonzero;stroke:none"
             inkscape:connector-curvature="0" /></g><g
           transform="translate(459.5431,354.7082)"
           id="g36"><path
             d="m 0,0 0,-15.262 13.835,0 0,-7.357 -13.835,0 0,-28.658 c 0,-6.587 1.867,-10.321 7.247,-10.321 2.525,0 4.392,0.33 5.6,0.659 l 0.439,-7.246 c -1.867,-0.769 -4.831,-1.318 -8.564,-1.318 -4.502,0 -8.126,1.427 -10.432,4.062 -2.744,2.855 -3.733,7.577 -3.733,13.836 l 0,28.986 -8.234,0 0,7.357 8.234,0 0,12.737 L 0,0 z"
             id="path38"
             style="fill:#4d4c4e;fill-opacity:1;fill-rule:nonzero;stroke:none"
             inkscape:connector-curvature="0" /></g><g
           transform="translate(519.4943,318.0349)"
           id="g40"><path
             d="M 0,0 C 0.11,6.149 -2.525,15.702 -13.396,15.702 -23.167,15.702 -27.45,6.698 -28.218,0 L 0,0 z m -28.328,-6.917 c 0.219,-13.066 8.564,-18.446 18.227,-18.446 6.917,0 11.089,1.207 14.713,2.745 l 1.647,-6.917 c -3.404,-1.538 -9.223,-3.294 -17.678,-3.294 -16.36,0 -26.132,10.76 -26.132,26.791 0,16.03 9.442,28.657 24.924,28.657 17.349,0 21.96,-15.262 21.96,-25.034 0,-1.977 -0.219,-3.513 -0.329,-4.502 l -37.332,0 z"
             id="path42"
             style="fill:#4d4c4e;fill-opacity:1;fill-rule:nonzero;stroke:none"
             inkscape:connector-curvature="0" /></g><g
           transform="translate(542.993,322.8666)"
           id="g44"><path
             d="m 0,0 c 0,6.258 -0.11,11.639 -0.439,16.58 l 8.454,0 0.33,-10.432 0.439,0 c 2.416,7.138 8.235,11.639 14.713,11.639 1.098,0 1.867,-0.11 2.745,-0.33 l 0,-9.112 C 25.254,8.564 24.266,8.674 22.948,8.674 16.14,8.674 11.31,3.513 9.992,-3.733 9.772,-5.051 9.552,-6.588 9.552,-8.235 l 0,-28.328 -9.552,0 L 0,0 z"
             id="path46"
             style="fill:#4d4c4e;fill-opacity:1;fill-rule:nonzero;stroke:none"
             inkscape:connector-curvature="0" /></g><g
           transform="translate(527.1666,487.2882)"
           id="g48"><path
             d="m 0,0 c 0.506,-11.818 -8.663,-21.808 -20.481,-22.314 -11.818,-0.507 -21.808,8.663 -22.314,20.481 -0.507,11.817 8.663,21.808 20.481,22.314 C -10.497,20.987 -0.506,11.818 0,0"
             id="path50"
             style="fill:#737577;fill-opacity:1;fill-rule:nonzero;stroke:none"
             inkscape:connector-curvature="0" /></g></g></g><g
       id="g52"><g
         clip-path="url(#clipPath56)"
         id="g54"><g
           id="g60"><g
             id="g62"><path
               d="m 396.012,200.599 c -65.513,0 -122.561,23.543 -152.26,58.326 l 0,0 c 22.475,-62.356 82.158,-106.939 152.26,-106.939 l 0,0 c 70.102,0 129.784,44.583 152.259,106.939 l 0,0 C 518.573,224.142 461.525,200.599 396.012,200.599"
               id="path76"
               style="fill:url(#linearGradient64);stroke:none"
               inkscape:connector-curvature="0" /></g></g></g></g><g
       id="g78"><g
         clip-path="url(#clipPath82)"
         id="g80"><g
           id="g86"><g
             id="g88"><path
               d="m 243.752,368.661 c 29.699,34.783 86.747,58.327 152.26,58.327 l 0,0 c 65.512,0 122.561,-23.544 152.259,-58.327 l 0,0 c -22.475,62.356 -82.157,106.94 -152.259,106.94 l 0,0 c -70.102,0 -129.785,-44.584 -152.26,-106.94"
               id="path102"
               style="fill:url(#linearGradient90);stroke:none"
               inkscape:connector-curvature="0" /></g></g></g></g><g
       id="g104"><g
         clip-path="url(#clipPath108)"
         id="g106"><g
           transform="translate(312.2585,133.6977)"
           id="g112"><path
             d="m 0,0 c 0.609,-14.223 -10.427,-26.247 -24.65,-26.857 -14.223,-0.609 -26.247,10.427 -26.857,24.65 -0.609,14.224 10.427,26.248 24.65,26.857 C -12.633,25.259 -0.609,14.223 0,0"
             id="path114"
             style="fill:#96989b;fill-opacity:1;fill-rule:nonzero;stroke:none"
             inkscape:connector-curvature="0" /></g><g
           transform="translate(276.7557,457.7038)"
           id="g116"><path
             d="m 0,0 c 0.371,-8.666 -6.353,-15.993 -15.019,-16.364 -8.667,-0.371 -15.993,6.353 -16.364,15.02 -0.372,8.666 6.353,15.992 15.019,16.363 C -7.698,15.391 -0.371,8.666 0,0"
             id="path118"
             style="fill:#606163;fill-opacity:1;fill-rule:nonzero;stroke:none"
             inkscape:connector-curvature="0" /></g></g></g></g></svg>